<?xml version="1.0" standalone="no"?>
<!DOCTYPE svg PUBLIC "-//W3C//DTD SVG 20010904//EN"
 "http://www.w3.org/TR/2001/REC-SVG-20010904/DTD/svg10.dtd">
<svg version="1.0" xmlns="http://www.w3.org/2000/svg"
 width="700.000000pt" height="700.000000pt" viewBox="0 0 700.000000 700.000000"
 preserveAspectRatio="xMidYMid meet">
<metadata>
Created by potrace 1.11, written by Peter Selinger 2001-2013
</metadata>
<g transform="translate(0.000000,700.000000) scale(0.100000,-0.100000)"
fill="#000000" stroke="none">
<path d="M4892 6989 c-140 -17 -275 -41 -421 -76 -36 -8 -74 -17 -85 -19 -27
-5 -145 -40 -231 -69 -493 -164 -802 -425 -860 -725 -7 -35 -3 -33 -130 -45
-44 -4 -89 -8 -100 -10 -11 -2 -41 -6 -66 -9 -102 -14 -295 -55 -439 -92 -52
-14 -102 -27 -111 -29 -89 -19 -501 -156 -683 -227 -498 -193 -1212 -529
-1584 -747 -41 -24 -93 -51 -116 -62 -54 -23 -71 -54 -62 -111 5 -35 17 -55
55 -94 54 -56 139 -131 169 -148 10 -6 39 -24 63 -40 57 -39 237 -130 308
-157 190 -72 385 -129 441 -129 14 0 34 6 45 13 34 24 308 134 427 172 94 31
132 38 228 42 128 6 207 -2 435 -44 50 -9 94 -16 98 -15 5 1 6 -2 3 -7 -4 -5
-20 -13 -37 -16 -97 -22 -525 -215 -682 -309 -144 -86 -177 -126 -163 -200 14
-72 211 -221 375 -283 132 -50 185 -56 481 -53 151 1 291 3 310 5 158 16 280
18 820 18 555 0 698 -4 752 -19 10 -3 30 -7 45 -10 209 -34 412 -167 463 -301
30 -77 30 -178 2 -251 -50 -128 -213 -265 -422 -353 -41 -17 -88 -37 -105 -44
-122 -52 -435 -128 -640 -156 -396 -53 -699 -42 -1230 47 -115 19 -226 39
-245 44 -41 11 -78 18 -140 26 -25 3 -47 8 -50 9 -3 2 -46 11 -95 19 -50 9
-101 18 -115 21 -14 3 -47 8 -75 11 -27 4 -72 10 -100 15 -49 7 -416 4 -485
-5 -19 -2 -69 -7 -110 -11 -41 -3 -84 -8 -95 -10 -11 -2 -42 -7 -70 -10 -79
-9 -117 -16 -155 -25 -19 -5 -51 -11 -70 -14 -102 -16 -289 -85 -367 -136 -46
-30 -53 -40 -63 -83 -18 -84 -13 -131 15 -155 25 -22 47 -27 158 -37 184 -16
344 -98 497 -254 90 -91 148 -172 224 -311 26 -47 57 -95 68 -107 21 -23 193
-84 273 -99 22 -3 49 -8 60 -10 33 -7 167 -6 210 1 22 4 67 18 100 32 63 27
113 30 190 13 269 -60 461 -274 539 -602 l14 -57 -31 -43 c-18 -24 -42 -54
-54 -68 -13 -14 -23 -28 -23 -32 0 -3 -6 -13 -13 -20 -6 -7 -32 -38 -57 -68
-87 -108 -175 -206 -242 -272 -56 -55 -69 -74 -72 -103 -3 -46 30 -81 84 -90
75 -13 310 8 465 42 39 8 80 16 92 19 61 12 270 77 354 109 413 163 716 383
830 605 33 64 34 68 34 190 0 69 -3 139 -7 155 -4 17 -10 43 -13 58 -10 52
-37 122 -61 164 -13 23 -24 44 -24 47 0 2 26 8 58 11 31 4 68 8 82 10 14 2 48
7 75 10 398 52 898 187 1280 345 231 95 502 226 670 323 184 106 457 299 589
415 61 54 225 220 274 277 142 167 270 403 316 581 26 101 28 116 31 249 10
430 -179 892 -554 1350 -439 538 -1092 969 -1629 1075 -138 27 -142 29 -142
46 0 27 61 189 102 273 57 115 183 301 275 406 90 104 106 148 67 190 -42 45
-76 51 -222 34z m-2613 -1873 c33 -18 51 -54 51 -106 0 -109 -152 -150 -211
-58 -48 77 4 178 92 178 22 0 52 -6 68 -14z m3319 -250 c65 -47 180 -169 229
-242 135 -200 214 -433 250 -734 10 -85 10 -348 0 -430 -22 -182 -83 -358
-169 -494 -133 -208 -352 -350 -600 -391 -85 -13 -116 -6 -155 37 -35 37 -36
81 -2 127 15 22 33 42 39 46 27 17 100 130 124 193 45 118 62 273 42 382 -26
136 -132 314 -281 469 -210 219 -466 352 -710 368 -119 8 -152 30 -161 105 -9
83 39 130 133 129 238 -1 516 -110 743 -290 233 -186 413 -433 487 -668 23
-76 27 -105 27 -213 1 -135 -6 -205 -29 -288 l-14 -54 22 18 c128 108 220 284
243 466 3 24 7 49 10 57 6 18 5 282 -1 366 -7 87 -42 264 -72 358 -57 183
-141 324 -273 460 -88 92 -106 126 -96 182 17 89 122 109 214 41z"/>
<path d="M2694 3253 c9 -23 89 -131 161 -218 75 -91 182 -201 343 -357 109
-105 113 -108 157 -108 83 0 146 65 124 127 -13 36 -23 161 -22 278 0 117 5
159 27 242 l14 52 -405 -1 c-349 0 -404 -2 -399 -15z"/>
</g>
</svg>
